<svg xmlns="http://www.w3.org/2000/svg" viewBox="0 0 48 48" id="cedar"><path fill="#ffffff"  fill-rule="evenodd" d="M20.84,38.45c-.22,1.38-.65,2.58-1.33,3.55h-5.89l1.28-2.55c.25-.49,.05-1.1-.45-1.34-.49-.25-1.1-.05-1.34,.45l-1.11,2.21-1.11-2.21c-.25-.49-.85-.69-1.34-.45-.49,.25-.69,.85-.45,1.34l1.28,2.55H5c-.55,0-1,.45-1,1s.45,1,1,1H40c.55,0,1-.45,1-1s-.45-1-1-1h-2.38l1.28-2.55c.25-.49,.05-1.1-.45-1.34-.49-.25-1.1-.05-1.34,.45l-1.11,2.21-1.11-2.21c-.25-.49-.85-.69-1.34-.45-.49,.25-.69,.85-.45,1.34l1.28,2.55h-5.89c-.68-.97-1.11-2.16-1.33-3.55,1.19,.34,2.46,.54,3.83,.55,.37,0,.71-.2,.89-.52,.18-.33,.16-.72-.05-1.03l-.9-1.35c1.21-.08,2.42-.45,3.63-1.27,.32-.21,.48-.59,.43-.97s-.31-.69-.68-.81c-.34-.11-.67-.24-.99-.4,1.22-.34,2.35-.95,3.37-1.93,.27-.26,.37-.64,.27-1-.11-.36-.4-.63-.77-.7-1.3-.26-2.53-.7-3.68-1.38,.98-.38,1.78-1.08,2.37-2.16,.16-.29,.16-.65,0-.94-.16-.3-.45-.49-.79-.53-.94-.09-1.84-.32-2.68-.69,.9-.39,1.69-.92,2.33-1.66,.22-.25,.29-.59,.21-.9-.08-.32-.32-.58-.62-.69-1.22-.45-2.29-1.16-3.24-2.09,.89-.16,1.74-.53,2.54-1.2,.24-.2,.37-.51,.35-.83-.02-.32-.19-.6-.46-.78-1.15-.74-2.26-1.55-3.32-2.45,.61-.22,1.14-.57,1.55-1.07,.18-.22,.26-.5,.22-.77-.04-.28-.19-.53-.42-.68-2.18-1.49-4.11-3.38-5.74-5.74-.19-.27-.49-.43-.82-.43s-.64,.16-.82,.43c-1.63,2.37-3.56,4.25-5.74,5.74-.23,.16-.38,.41-.42,.68-.04,.28,.04,.56,.22,.77,.41,.5,.93,.85,1.55,1.07-1.06,.91-2.17,1.71-3.32,2.45-.27,.17-.44,.46-.46,.78-.02,.32,.11,.62,.35,.83,.8,.67,1.65,1.04,2.54,1.2-.94,.94-2.01,1.65-3.23,2.09-.31,.11-.54,.37-.62,.69-.08,.32,0,.66,.21,.9,.64,.74,1.44,1.27,2.33,1.66-.84,.37-1.73,.6-2.68,.69-.33,.03-.63,.23-.79,.53-.16,.3-.15,.65,0,.94,.59,1.08,1.39,1.77,2.37,2.16-1.15,.68-2.38,1.13-3.68,1.38-.37,.07-.66,.34-.77,.7-.1,.36,0,.74,.27,1,1.02,.98,2.15,1.59,3.36,1.93-.32,.16-.65,.29-.98,.4-.36,.12-.62,.43-.68,.81-.05,.38,.11,.75,.43,.97,1.21,.82,2.41,1.19,3.63,1.27l-.9,1.35c-.21,.31-.22,.7-.05,1.03,.18,.33,.52,.53,.89,.52,1.37-.01,2.64-.21,3.83-.55h0Zm22.16,3.55c.55,0,1,.45,1,1s-.45,1-1,1-1-.45-1-1,.45-1,1-1h0Zm-17.95-4.33c-.36-.16-.7-.34-1.05-.52-.34,.19-.69,.36-1.05,.52-.15,1.64-.52,3.1-1.13,4.33h4.36c-.61-1.23-.98-2.69-1.13-4.33h0Zm-.54-2.53c-.31-.18-.7-.18-1.01,0-1.38,.8-2.86,1.41-4.51,1.69l.85-1.27c.22-.33,.22-.76,.01-1.09-.21-.33-.61-.51-1-.45-.83,.13-1.66,.15-2.49-.04,.51-.35,.99-.79,1.43-1.36,.23-.29,.28-.69,.12-1.03s-.49-.56-.86-.58c-.96-.05-1.88-.22-2.73-.61,1.56-.57,3.02-1.43,4.36-2.65,.31-.28,.41-.73,.25-1.12-.16-.39-.55-.64-.97-.62-.74,.03-1.41-.06-1.97-.35,1.31-.36,2.53-.98,3.64-1.86,.3-.24,.44-.64,.35-1.02-.09-.38-.4-.67-.78-.74-.84-.17-1.64-.4-2.33-.78,1.52-.85,2.83-2.09,3.95-3.66,.23-.32,.25-.75,.04-1.09-.2-.34-.59-.53-.98-.48-.68,.08-1.34,.09-1.97-.09,1.34-.95,2.61-2.01,3.8-3.21,.29-.29,.37-.73,.2-1.11-.17-.38-.55-.61-.96-.6-.42,.02-.82,0-1.18-.07,1.54-1.2,2.95-2.6,4.22-4.24,1.26,1.64,2.68,3.04,4.22,4.24-.35,.07-.75,.08-1.17,.07-.41-.02-.79,.22-.96,.6-.17,.37-.09,.81,.2,1.11,1.19,1.21,2.47,2.26,3.8,3.21-.63,.18-1.29,.18-1.97,.09-.39-.05-.78,.14-.98,.48-.2,.34-.19,.77,.04,1.09,1.11,1.57,2.42,2.81,3.95,3.66-.69,.38-1.48,.61-2.33,.78-.38,.07-.69,.36-.78,.74-.09,.38,.04,.78,.35,1.02,1.11,.89,2.33,1.5,3.64,1.86-.56,.29-1.23,.39-1.97,.35-.42-.02-.81,.23-.97,.62-.16,.39-.06,.84,.25,1.12,1.33,1.22,2.79,2.08,4.36,2.65-.85,.39-1.77,.56-2.73,.61-.37,.02-.71,.24-.86,.58-.16,.34-.11,.74,.12,1.03,.44,.56,.92,1,1.43,1.36-.83,.19-1.66,.17-2.49,.04-.39-.06-.79,.11-1,.45-.21,.33-.21,.76,.01,1.09l.85,1.27c-1.65-.28-3.13-.88-4.51-1.69h0Zm-2.21-5.84l-2,2c-.39,.39-.39,1.02,0,1.42,.39,.39,1.02,.39,1.42,0l2-2c.39-.39,.39-1.02,0-1.42-.39-.39-1.02-.39-1.42,0h0Zm5.16-5.19l-2-1c-.49-.25-1.1-.05-1.34,.45-.25,.49-.05,1.1,.45,1.34l2,1c.49,.25,1.1,.05,1.34-.45,.25-.49,.05-1.1-.45-1.34h0Zm-5.74-2.4l2-2c.39-.39,.39-1.02,0-1.42-.39-.39-1.02-.39-1.42,0l-2,2c-.39,.39-.39,1.02,0,1.42,.39,.39,1.02,.39,1.42,0h0Zm1.58-7l1,1c.39,.39,1.02,.39,1.42,0,.39-.39,.39-1.02,0-1.42l-1-1c-.39-.39-1.02-.39-1.42,0-.39,.39-.39,1.02,0,1.42h0Z"></path></svg>