<svg xmlns="http://www.w3.org/2000/svg" data-name="Layer 1" viewBox="0 0 64 64" id="hiking"><path fill="#ffffff"   d="M17.77,42.59H13.61a2.81,2.81,0,0,1-2.82-2.81V26.45a2.81,2.81,0,0,1,2.82-2.81h4.16a2.81,2.81,0,0,1,2.81,2.81V39.78A2.81,2.81,0,0,1,17.77,42.59Zm-4.16-17a.82.82,0,0,0-.82.81V39.78a.82.82,0,0,0,.82.81h4.16a.81.81,0,0,0,.81-.81V26.45a.81.81,0,0,0-.81-.81Z"></path><path fill="#ffffff"  d="M9.78 60.61A3.09 3.09 0 017 56.26l3-6.69.86-9.91a1 1 0 011.08-.91 1 1 0 01.91 1.08l-.87 10.08a1.23 1.23 0 01-.08.33L8.79 57.08a1 1 0 00.08 1 1 1 0 00.91.5 1.07 1.07 0 001-.69l3.08-7.87.82-8.55a1 1 0 011.85-.42l4.85 8.08a1.07 1.07 0 01.14.52v5.66a1 1 0 002 0v-6.9l-4.85-8.19a1 1 0 111.72-1l5 8.42a1 1 0 01.14.51v7.18a3 3 0 01-6 0V50l-3.14-5.24-.54 5.67a.9.9 0 01-.07.27l-3.12 8A3.08 3.08 0 019.78 60.61zM30.18 37.61H30.1l-6.78-.19a1 1 0 01-.72-.34l-3.77-4.31a1 1 0 01.09-1.41 1 1 0 011.41.09l3.48 4 6.35.18a.64.64 0 00.57-.22.78.78 0 00.24-.57.8.8 0 00-.75-.8L25 33.75a1 1 0 01-.73-.38L18.38 26a1 1 0 01.16-1.41 1 1 0 011.41.17l5.57 7.06 4.81.26a2.79 2.79 0 01-.15 5.58zM9.23 38.35H7.7a3.57 3.57 0 01-3.57-3.56V24.66A3.57 3.57 0 017.7 21.09H9.23a3.57 3.57 0 013.56 3.57v1.83a1 1 0 11-2 0V24.66a1.56 1.56 0 00-1.56-1.57H7.7a1.57 1.57 0 00-1.57 1.57V34.79A1.57 1.57 0 007.7 36.35H9.23a1.56 1.56 0 001.56-1.56 1 1 0 012 0A3.57 3.57 0 019.23 38.35zM15.43 21.46a5.15 5.15 0 115.15-5.15A5.16 5.16 0 0115.43 21.46zm0-8.3a3.15 3.15 0 103.15 3.15A3.16 3.16 0 0015.43 13.16z"></path><path fill="#ffffff"  d="M28.8 54.29a1 1 0 01-1-1V36.57a1 1 0 012 0V53.29A1 1 0 0128.8 54.29zM28.8 34a1 1 0 01-1-1V31a1 1 0 012 0v2A1 1 0 0128.8 34zM40.1 50.07a1 1 0 01-.3 0 61.84 61.84 0 00-8-2 1 1 0 11.33-2 61.94 61.94 0 018.26 2 1 1 0 01-.3 2zM2 56.47a1 1 0 01-.58-.18 1 1 0 01-.24-1.4 20.45 20.45 0 015.16-4.61 1 1 0 011.39.29A1 1 0 017.44 52a18.08 18.08 0 00-4.62 4.1A1 1 0 012 56.47z"></path><path fill="#ffffff"  d="M33.49 59.56a1 1 0 01-.92-1.39c.07-.16 7.1-16.5 28.75-17.58a1 1 0 01.1 2c-20.35 1-26.74 15.73-27 16.35A1 1 0 0133.49 59.56zM26 22.65a1 1 0 01-.73-.31 1 1 0 010-1.42l14.1-13.4a1 1 0 01.74-.27 1 1 0 01.71.33L49 16.84a1 1 0 11-1.5 1.32L40 9.69 26.68 22.37A1 1 0 0126 22.65z"></path><path fill="#ffffff"  d="M36.87,32a1,1,0,0,1-.66-.25,1,1,0,0,1-.09-1.41L55.64,8.13a1,1,0,0,1,.74-.34,1.08,1.08,0,0,1,.75.33l5.61,6.15a1,1,0,0,1-.07,1.42,1,1,0,0,1-1.41-.07L56.4,10.29,37.62,31.63A1,1,0,0,1,36.87,32Z"></path><path fill="#ffffff"  d="M41.18 27.07a1 1 0 01-.8-.39l-4.07-5.31a1 1 0 010-1.24l2.62-3.27L37.65 14a1 1 0 010-.69l1.49-5.14a1 1 0 011.24-.69A1 1 0 0141 8.69l-1.39 4.8L41 16.6a1 1 0 01-.14 1l-2.51 3.14 3.6 4.7a1 1 0 01-.79 1.6zM58.89 28.72a1 1 0 01-.72-.31L55.91 26a1 1 0 01-.25-.89l1.28-5.95L54.5 16.34a1 1 0 01-.23-.82l1.1-6.72a1 1 0 112 .32l-1 6.27 2.46 2.85a1 1 0 01.22.86L57.73 25l1.89 2a1 1 0 01-.73 1.68zM20.35 8.67h-.1a1 1 0 01-.9-1c0-1.79-2.54-2.29-2.57-2.3a1 1 0 11.37-2 6.05 6.05 0 013.28 1.8 4.61 4.61 0 013.32-1.82 1 1 0 11.16 2 3.11 3.11 0 00-2.58 2.48A1 1 0 0120.35 8.67zM26.91 12.71h-.1a1 1 0 01-.9-1 1.55 1.55 0 00-1.19-1.48 1 1 0 01.49-1.94A3.92 3.92 0 0127 9.41a3.59 3.59 0 012.39-1.14 1 1 0 011.08.92 1 1 0 01-.92 1.07c-1.38.11-1.69 1.63-1.7 1.65A1 1 0 0126.91 12.71zM49.54 52.64A1 1 0 0149 50.78a18.23 18.23 0 0112.16-2.7 1 1 0 11-.26 2 16.29 16.29 0 00-10.87 2.43A1 1 0 0149.54 52.64zM44 57.41a1 1 0 01-.61-.2 1 1 0 01-.18-1.41 19.25 19.25 0 011.54-1.68 1 1 0 111.4 1.43A18.48 18.48 0 0044.76 57 1 1 0 0144 57.41z"></path></svg>