<svg xmlns="http://www.w3.org/2000/svg" width="64" height="64" id="motor-boat"><path fill="#ffffff"  d="M60.909 29.582A1.002 1.002 0 0 0 60 29H40.727c-1.647-1.716-3.479-3.311-5.562-4.478C34.249 24.009 29 21.601 29 24v5H19v-1c0-2.757-2.243-5-5-5H8c-2.757 0-5 2.243-5 5v2a5.003 5.003 0 0 0 4.959 4.996c.583 2.508 1.272 5.104 2.57 7.35C11.266 43.62 12.392 45 14 45h20c6.89 0 13.399-3.156 18.842-7.167a53.678 53.678 0 0 0 5.784-4.937c.624-.613 2.775-2.243 2.283-3.314-.164-.354.163.355 0 0zM31 25.083c2.5.404 5.001 2.218 6.866 3.917H31v-3.917zM5 30v-2c0-1.654 1.346-3 3-3h6c1.654 0 3 1.346 3 3v1H8c-1.721 0-.668 3.071-.491 3.96A3.005 3.005 0 0 1 5 30zm29 13H14c-.669 0-1.72-1.079-2.802-4H36c1.29 0 1.29-2 0-2H10.552c-.583-1.969-1.023-3.978-1.375-6h48.499C54.038 34.634 44.518 43 34 43zm22 3.58c-1.121 0-2.109.464-2.893 1.25-.743.745-1.268 1.865-2.213 2.375-2.127 1.149-3.344-2.064-4.77-3.003-2.139-1.409-4.382-.277-5.788 1.508-.618.784-1.243 1.709-2.348 1.709-1.183 0-1.824-1.062-2.485-1.885-1.439-1.791-3.82-2.707-5.85-1.188-1.332.997-2.664 4.198-4.748 2.741-.826-.577-1.315-1.55-2.02-2.257-.866-.869-1.978-1.33-3.213-1.239-1.088.079-2.004.624-2.734 1.412-.694.748-1.249 1.91-2.244 2.295-2.148.831-3.234-2.349-4.778-3.229-.76-.433-2.544-.98-2.881.245-.388 1.41 1.544 1.15 2.235 1.74.773.659 1.263 1.593 2.011 2.283a3.994 3.994 0 0 0 3.342 1.037c1.053-.157 1.901-.768 2.587-1.554.66-.756 1.25-1.931 2.3-2.186 2.146-.521 3.112 2.606 4.793 3.417 2.405 1.159 4.263-.421 5.677-2.192.636-.797 1.39-1.492 2.492-1.225 1.05.255 1.64 1.43 2.3 2.186 1.552 1.779 4.115 2.19 5.931.517 1.133-1.044 2.25-3.588 4.184-2.543.811.438 1.298 1.352 1.889 2.027.618.707 1.37 1.287 2.302 1.5 2.228.508 3.64-.875 4.908-2.461.274-.342.56-.694.923-.947.445-.311.866-.233 1.355-.368 1.093-.301.869-1.965-.264-1.965z"></path><path fill="#ffffff"  d="M56 50.58c-1.121 0-2.109.464-2.893 1.25-.743.745-1.268 1.865-2.213 2.375-2.127 1.149-3.344-2.064-4.77-3.003-2.139-1.409-4.382-.277-5.788 1.508-.618.784-1.243 1.709-2.348 1.709-1.183 0-1.824-1.062-2.485-1.885-1.439-1.791-3.82-2.707-5.85-1.188-1.332.997-2.664 4.198-4.748 2.741-.826-.577-1.315-1.55-2.02-2.257-.866-.869-1.978-1.33-3.213-1.239-1.088.079-2.004.624-2.734 1.412-.694.748-1.249 1.91-2.244 2.295-2.148.831-3.234-2.349-4.778-3.229-.76-.433-2.544-.98-2.881.245-.388 1.41 1.544 1.15 2.235 1.74.773.659 1.263 1.593 2.011 2.283a3.994 3.994 0 0 0 3.342 1.037c1.053-.157 1.901-.768 2.587-1.554.66-.756 1.25-1.931 2.3-2.186 2.146-.521 3.112 2.606 4.793 3.417 2.405 1.159 4.263-.421 5.677-2.192.636-.797 1.39-1.492 2.492-1.225 1.05.255 1.64 1.43 2.3 2.186 1.552 1.779 4.115 2.19 5.931.517 1.133-1.044 2.25-3.588 4.184-2.543.811.438 1.298 1.352 1.889 2.027.618.707 1.37 1.287 2.302 1.5 2.228.508 3.64-.875 4.908-2.461.274-.342.56-.694.923-.947.445-.311.866-.233 1.355-.368 1.093-.301.869-1.965-.264-1.965z"></path></svg>