<svg xmlns="http://www.w3.org/2000/svg" enable-background="new 0 0 98 98" viewBox="0 0 98 98" id="trolley-bag"><path fill="#ffffff"  d="M29.9441,87.7271h0.5942v2.0028c-1.5607,0.4387-2.7148,1.8593-2.7148,3.5582c0,2.0469,1.665,3.7119,3.7114,3.7119
		s3.7114-1.665,3.7114-3.7119c0-0.5996-0.1564-1.1582-0.4099-1.6599l4.2879-3.9011h17.9911l4.2879,3.9011
		c-0.2535,0.5017-0.4099,1.0603-0.4099,1.6599c0,2.0469,1.665,3.7119,3.7119,3.7119c2.0464,0,3.7114-1.665,3.7114-3.7119
		c0-1.6991-1.1544-3.1199-2.7153-3.5583v-2.0027h0.5942c3.0454,0,5.5229-2.478,5.5229-5.5234V29.7295
		c0-3.0454-2.4775-5.5234-5.5229-5.5234h-5.2568v-0.9937c0-1.8496-1.5049-3.3545-3.3545-3.3545h-1.1245V8.4863h2.7554V3.565
		C59.3152,2.1504,58.1648,1,56.7502,1H39.49c-1.4146,0-2.5654,1.1504-2.5654,2.5649v4.9214h2.7559v11.3716h-1.125
		c-1.8496,0-3.3545,1.5049-3.3545,3.3545v0.9937h-5.2568c-3.0454,0-5.5229,2.478-5.5229,5.5234v52.4741
		C24.4211,85.249,26.8987,87.7271,29.9441,87.7271z M31.5349,95c-0.9438,0-1.7114-0.7681-1.7114-1.7119s0.7676-1.7114,1.7114-1.7114
		s1.7114,0.7676,1.7114,1.7114S32.4788,95,31.5349,95z M33.4916,90.148c-0.2927-0.1831-0.6137-0.3198-0.9533-0.416v-2.0049h3.6144
		L33.4916,90.148z M66.4167,93.2881c0,0.9438-0.7676,1.7119-1.7114,1.7119s-1.7119-0.7681-1.7119-1.7119
		s0.7681-1.7114,1.7119-1.7114S66.4167,92.3443,66.4167,93.2881z M63.7014,89.7321c-0.3396,0.0962-0.6605,0.2328-0.9532,0.4159
		l-2.6611-2.4209h3.6144V89.7321z M38.9246,3.565C38.9246,3.2534,39.178,3,39.49,3h17.2603c0.3115,0,0.5649,0.2534,0.5649,0.5649
		v2.9214h-4.125l-0.9038-1.8438h-8.333l-0.9038,1.8438h-4.125V3.565z M41.6804,8.4863h2.6162l0.9038-1.8438h5.8389l0.9038,1.8438
		h2.6167v11.3716H41.6804V8.4863z M37.2009,23.2124c0-0.7471,0.6074-1.3545,1.3545-1.3545h1.125h16.8794h1.1245
		c0.7471,0,1.3545,0.6074,1.3545,1.3545v0.9937H37.2009V23.2124z M26.4211,29.7295c0-1.9429,1.5806-3.5234,3.5229-3.5234
		c11.2802,0,25.0539,0,36.3516,0c1.9424,0,3.5229,1.5806,3.5229,3.5234v52.4741c0,1.9429-1.5806,3.5234-3.5229,3.5234
		c-0.1022,0-38.7451-0.0007-36.3516,0c-1.9424,0-3.5229-1.5806-3.5229-3.5234V29.7295z"></path><path fill="#ffffff"  d="M32.5715 36.9448h31.0972c2.0464 0 3.7114-1.665 3.7114-3.7114 0-2.0469-1.665-3.7119-3.7114-3.7119H32.5715c-2.0469 0-3.7119 1.665-3.7119 3.7119C28.8596 35.2798 30.5247 36.9448 32.5715 36.9448zM32.5715 31.5215h31.0972c.9438 0 1.7114.7681 1.7114 1.7119s-.7676 1.7114-1.7114 1.7114H32.5715c-.9438 0-1.7119-.7676-1.7119-1.7114S31.6277 31.5215 32.5715 31.5215zM32.5715 48.3115h31.0972c2.0464 0 3.7114-1.665 3.7114-3.7114 0-2.0469-1.665-3.7119-3.7114-3.7119H32.5715c-2.0469 0-3.7119 1.665-3.7119 3.7119C28.8596 46.6465 30.5247 48.3115 32.5715 48.3115zM32.5715 42.8882h31.0972c.9438 0 1.7114.7681 1.7114 1.7119s-.7676 1.7114-1.7114 1.7114H32.5715c-.9438 0-1.7119-.7676-1.7119-1.7114S31.6277 42.8882 32.5715 42.8882zM32.5715 59.6782h31.0972c2.0464 0 3.7114-1.665 3.7114-3.7114 0-2.0469-1.665-3.7119-3.7114-3.7119H32.5715c-2.0469 0-3.7119 1.665-3.7119 3.7119C28.8596 58.0132 30.5247 59.6782 32.5715 59.6782zM32.5715 54.2549h31.0972c.9438 0 1.7114.7681 1.7114 1.7119s-.7676 1.7114-1.7114 1.7114H32.5715c-.9438 0-1.7119-.7676-1.7119-1.7114S31.6277 54.2549 32.5715 54.2549zM32.5715 71.0449h31.0972c2.0464 0 3.7114-1.665 3.7114-3.7119 0-2.0464-1.665-3.7114-3.7114-3.7114H32.5715c-2.0469 0-3.7119 1.665-3.7119 3.7114C28.8596 69.3799 30.5247 71.0449 32.5715 71.0449zM32.5715 65.6216h31.0972c.9438 0 1.7114.7676 1.7114 1.7114s-.7676 1.7119-1.7114 1.7119H32.5715c-.9438 0-1.7119-.7681-1.7119-1.7119S31.6277 65.6216 32.5715 65.6216zM32.5715 82.4116h31.0972c2.0464 0 3.7114-1.665 3.7114-3.7119 0-2.0464-1.665-3.7114-3.7114-3.7114H32.5715c-2.0469 0-3.7119 1.665-3.7119 3.7114C28.8596 80.7466 30.5247 82.4116 32.5715 82.4116zM32.5715 76.9883h31.0972c.9438 0 1.7114.7676 1.7114 1.7114s-.7676 1.7119-1.7114 1.7119H32.5715c-.9438 0-1.7119-.7681-1.7119-1.7119S31.6277 76.9883 32.5715 76.9883z"></path><rect fill="#ffffff"    width="2" height="2" x="74.579" y="54.402"></rect><rect fill="#ffffff"  width="2" height="2" x="74.579" y="42.402"></rect><rect fill="#ffffff"  width="2" height="2" x="74.579" y="38.402"></rect><rect fill="#ffffff"  width="2" height="2" x="74.579" y="46.402"></rect><rect fill="#ffffff"  width="2" height="2" x="74.579" y="58.402"></rect><rect fill="#ffffff"  width="2" height="1.706" x="74.579" y="66.402"></rect><rect fill="#ffffff"  width="2" height="2" x="74.579" y="50.402"></rect><rect fill="#ffffff"  width="2" height="2" x="74.579" y="62.402"></rect><rect fill="#ffffff"  width="2" height="2" x="19.661" y="42.402"></rect><rect fill="#ffffff"  width="2" height="2" x="19.661" y="38.402"></rect><rect fill="#ffffff"  width="2" height="2" x="19.661" y="62.402"></rect><rect fill="#ffffff"  width="2" height="2" x="19.661" y="58.402"></rect><rect fill="#ffffff"  width="2" height="1.706" x="19.661" y="66.402"></rect><rect fill="#ffffff"  width="2" height="2" x="19.661" y="54.402"></rect><rect fill="#ffffff"  width="2" height="2" x="19.661" y="50.402"></rect><rect fill="#ffffff"  width="2" height="2" x="19.661" y="46.402"></rect><rect fill="#ffffff"  width="2" height="2" x="77.168" y="10.603"></rect><rect fill="#ffffff"  width="2" height="2" x="81.168" y="10.603"></rect><rect fill="#ffffff"  width="2" height="2" x="73.168" y="10.603"></rect><rect fill="#ffffff"  width="2" height="2" x="82.986" y="82.351"></rect><rect fill="#ffffff"  width="2" height="2" x="86.986" y="82.351"></rect><rect fill="#ffffff"  width="2" height="2" x="78.986" y="82.351"></rect><rect fill="#ffffff"  width="2" height="2" x="88.156" y="30.317"></rect><rect fill="#ffffff"  width="2" height="2" x="92.156" y="30.317"></rect><rect fill="#ffffff"  width="2" height="2" x="84.156" y="30.317"></rect><rect fill="#ffffff"  width="2" height="2" x="7.843" y="48.901"></rect><rect fill="#ffffff"  width="2" height="2" x="11.844" y="48.901"></rect><rect fill="#ffffff"  width="2" height="2" x="3.844" y="48.901"></rect><rect fill="#ffffff"  width="2" height="2" x="17.539" y="6.486"></rect><rect fill="#ffffff"  width="2" height="2" x="13.539" y="6.486"></rect><rect fill="#ffffff"  width="2" height="2" x="21.539" y="6.486"></rect><rect fill="#ffffff"  width="2" height="2" x="17.015" y="82.351"></rect><rect fill="#ffffff"  width="2" height="2" x="9.015" y="82.351"></rect><rect fill="#ffffff"  width="2" height="2" x="13.015" y="82.351"></rect><polygon fill="#ffffff"  points="8.015 27.395 10.015 27.395 10.015 25.127 12.283 25.127 12.283 23.127 10.015 23.127 10.015 20.858 8.015 20.858 8.015 23.127 5.746 23.127 5.746 25.127 8.015 25.127"></polygon><polygon fill="#ffffff"  points="7.084 64.866 4.815 64.866 4.815 66.866 7.084 66.866 7.084 69.134 9.084 69.134 9.084 66.866 11.352 66.866 11.352 64.866 9.084 64.866 9.084 62.597 7.084 62.597"></polygon><polygon fill="#ffffff"  points="77.339 16.495 77.339 18.764 75.071 18.764 75.071 20.764 77.339 20.764 77.339 23.032 79.339 23.032 79.339 20.764 81.608 20.764 81.608 18.764 79.339 18.764 79.339 16.495"></polygon><polygon fill="#ffffff"  points="85.969 60.603 87.969 60.603 87.969 58.334 90.237 58.334 90.237 56.334 87.969 56.334 87.969 54.065 85.969 54.065 85.969 56.334 83.7 56.334 83.7 58.334 85.969 58.334"></polygon></svg>